<svg xmlns="http://www.w3.org/2000/svg" xmlns:xlink="http://www.w3.org/1999/xlink" version="1.1" x="0px" y="0px" viewBox="0 0 256 256" enable-background="new 0 0 256 256" xml:space="preserve">
<metadata fill="#ffffff"> Svg Vector Icons : http://www.onlinewebfonts.com/icon </metadata>
<g><g><g><path fill="#ffffff" d="M131,10.8c-19.3,4.1-33.4,22.1-34.4,43.6c-1,20.3,9,38.2,25.8,46.2c5.5,2.6,9.9,3.5,16.5,3.5c4.4,0,6.6-0.2,9.5-1c14.8-4,26.2-15.5,30.9-31.3c3.5-11.8,2.5-25.3-2.7-36.2c-2.8-5.8-5.3-9.5-9.5-13.7C157.2,12.2,143.8,8.1,131,10.8z M149.2,21.4c4.7,1.9,8,4.1,11.8,7.9c4.8,5,8.4,11.8,10,19c1.2,5.4,1,13.9-0.5,19.4c-2.1,8.3-7.1,16.1-12.9,20.5c-11.8,8.9-25.6,8.9-37.4,0c-5.9-4.4-10.8-12.2-12.9-20.5c-1.4-5.5-1.6-14-0.5-19.4c2.5-11.7,10.1-21.6,19.5-26c5-2.3,7.1-2.7,13.5-2.5C144.9,19.9,145.9,20.1,149.2,21.4z"/><path fill="#ffffff" d="M44,46.3l-3.3,3.1l27.2,29.2C82.9,94.8,98,111,101.6,114.8c3.6,3.8,32.5,34.9,64.4,69l57.9,62.1h3.6c3.3,0,3.6-0.1,3.6-0.9c0-3-6.5-67.5-8.3-82.5c-2.2-17.9-3.4-22.4-7.8-28.8c-6.6-9.6-22.3-18.2-40-21.8c-11.7-2.3-16.5-2.7-42-2.7l-23.6,0l-30.7-33c-16.9-18.1-30.8-33-31-33.1C47.5,43.2,45.8,44.6,44,46.3z M158,119.2c11.2,1,20.3,2.8,27.8,5.7c10.6,4.1,17.7,8.9,21.7,14.6c2.9,4.2,3.9,8.2,5.6,21.7c1.9,15.3,7.1,65.9,6.8,66.3c-0.2,0.1-99.7-106.5-100.7-107.9c-0.6-0.8,0.1-0.8,16.4-0.8C144.8,118.8,154.9,119,158,119.2z"/><path fill="#ffffff" d="M28,59.9c-1.7,1.6-3.1,3-3.1,3.2c0,0.2,12,13.1,26.7,28.8c22.3,23.7,26.6,28.5,26,28.9c-8,4.8-11.7,8.2-15.3,13.7c-4.1,6.2-5.5,11.4-7.7,28c-1.9,14.1-4.4,39.8-7.6,76.9c-0.3,3.4-0.5,6.3-0.3,6.4c0.1,0.1,36.7,0.1,81.2,0.1l81.1-0.1l-56.9-60.6c-31.3-33.4-58.6-62.4-60.6-64.6C73.7,101.4,31.8,57,31.5,57C31.3,57,29.8,58.3,28,59.9z M136.5,182.2c27.9,29.7,50.7,54.2,50.7,54.3c0,0.4-130,0.2-130.2-0.2c-0.5-0.7,4.9-57.3,6.9-72c1.2-8.5,2.5-15.9,3.5-18.7c1.8-5.1,5.3-10,9.3-12.9c2.9-2.2,7.8-4.8,8.5-4.7C85.5,128.2,108.6,152.5,136.5,182.2z"/></g></g></g>
</svg>